<?xml version="1.0" encoding="UTF-8"?>
<!DOCTYPE svg PUBLIC "-//W3C//DTD SVG 1.1//EN" "http://www.w3.org/Graphics/SVG/1.1/DTD/svg11.dtd">
<svg xmlns="http://www.w3.org/2000/svg" version="1.1" width="2500px" height="2500px" style="shape-rendering:geometricPrecision; text-rendering:geometricPrecision; image-rendering:optimizeQuality; fill-rule:evenodd; clip-rule:evenodd" xmlns:xlink="http://www.w3.org/1999/xlink">
<g><path style="opacity:0.997" fill="#000000" d="M -0.5,1276.5 C -0.5,1258.5 -0.5,1240.5 -0.5,1222.5C 12.284,1102.97 69.6174,1011.8 171.5,949C 244.969,907.922 323.302,893.922 406.5,907C 311.465,836.446 262.132,741.612 258.5,622.5C 261.449,505.094 309.449,411.26 402.5,341C 487.456,281.941 580.79,262.941 682.5,284C 769.425,305.351 838.925,352.184 891,424.5C 872.621,300.301 908.121,194.468 997.5,107C 1087.24,28.6429 1190.91,0.976235 1308.5,24C 1409.32,48.6265 1485.49,105.793 1537,195.5C 1574.85,267.626 1587.52,343.96 1575,424.5C 1631.33,345.598 1707.5,297.432 1803.5,280C 1928.02,263.391 2033.19,300.557 2119,391.5C 2196.22,482.717 2222.22,587.05 2197,704.5C 2175.19,788.921 2129.03,856.421 2058.5,907C 2184.37,888.953 2290.87,925.786 2378,1017.5C 2454.04,1106.96 2480.7,1209.63 2458,1325.5C 2432.28,1431.17 2371.44,1509.34 2275.5,1560C 2206.53,1593.33 2134.2,1603.99 2058.5,1592C 2154.06,1662.28 2203.4,1757.11 2206.5,1876.5C 2203.48,1994.38 2155.15,2088.55 2061.5,2159C 1970.11,2221.34 1870.78,2238.34 1763.5,2210C 1684.9,2186.48 1622.07,2141.31 1575,2074.5C 1592.87,2200.58 1556.03,2307.41 1464.5,2395C 1373.75,2472.22 1269.75,2498.56 1152.5,2474C 1055.01,2448.81 980.847,2392.98 930,2306.5C 890.619,2233.55 877.619,2156.21 891,2074.5C 812.147,2180.66 706.314,2229.83 573.5,2222C 464.895,2209.27 379.395,2158.44 317,2069.5C 259.095,1978.84 244.428,1881.51 273,1777.5C 296.675,1700.52 341.175,1638.69 406.5,1592C 294.072,1608.57 195.406,1579.57 110.5,1505C 44.9428,1442.89 7.94276,1366.73 -0.5,1276.5 Z"/></g>
<g><path style="opacity:1" fill="#1b46be" d="M 1373.5,502.5 C 1372.17,638.334 1372.17,774.334 1373.5,910.5C 1374.11,910.376 1374.44,910.043 1374.5,909.5C 1469.47,814.035 1564.63,718.701 1660,623.5C 1662.68,549.948 1694.51,493.115 1755.5,453C 1827.09,412.858 1898.09,413.858 1968.5,456C 2029.47,499.106 2059.3,558.273 2058,633.5C 2052.52,701.222 2021.69,753.722 1965.5,791C 1932.72,811.034 1897.06,821.367 1858.5,822C 1763.17,917.333 1667.83,1012.67 1572.5,1108C 1708.17,1108.67 1843.83,1108.67 1979.5,1108C 2030.75,1060.1 2091.08,1042.43 2160.5,1055C 2229.56,1071.77 2277.72,1112.94 2305,1178.5C 2329.28,1249.49 2318.94,1314.82 2274,1374.5C 2225.35,1430.95 2163.85,1454.78 2089.5,1446C 2046.81,1439.32 2010.14,1420.99 1979.5,1391C 1843.83,1390.33 1708.17,1390.33 1572.5,1391C 1667.83,1486.33 1763.17,1581.67 1858.5,1677C 1937.77,1680.36 1996.94,1716.19 2036,1784.5C 2069.25,1854.73 2065.25,1922.73 2024,1988.5C 1972.45,2057.33 1903.95,2084.83 1818.5,2071C 1744.93,2052.76 1695.43,2007.93 1670,1936.5C 1664.18,1916.58 1660.85,1896.24 1660,1875.5C 1564.63,1780.3 1469.47,1684.97 1374.5,1589.5C 1374.44,1588.96 1374.11,1588.62 1373.5,1588.5C 1372.17,1724.67 1372.17,1860.67 1373.5,1996.5C 1417.23,2041.52 1436.06,2095.52 1430,2158.5C 1419.59,2231.55 1381.42,2284.39 1315.5,2317C 1240.52,2347.56 1170.86,2338.56 1106.5,2290C 1047.74,2238.06 1024.91,2173.23 1038,2095.5C 1046.7,2057.09 1064.53,2023.76 1091.5,1995.5C 1092.83,1860.33 1092.83,1725 1091.5,1589.5C 1090.89,1589.62 1090.56,1589.96 1090.5,1590.5C 995.201,1685.3 900.035,1780.3 805,1875.5C 801.649,1956.77 764.482,2016.6 693.5,2055C 623.739,2085.99 556.739,2080.99 492.5,2040C 430.675,1994.17 402.508,1932.67 408,1855.5C 418.746,1780.44 458.246,1726.61 526.5,1694C 552.08,1683.35 578.747,1677.68 606.5,1677C 701.833,1581.67 797.167,1486.33 892.5,1391C 756.833,1390.33 621.167,1390.33 485.5,1391C 436.129,1437.34 377.796,1455.34 310.5,1445C 239.333,1430.16 189.5,1389.33 161,1322.5C 134.706,1247.26 146.706,1178.92 197,1117.5C 256.346,1056.29 327.179,1037.45 409.5,1061C 438.389,1071.1 463.722,1086.77 485.5,1108C 621.167,1108.67 756.833,1108.67 892.5,1108C 797.167,1012.67 701.833,917.333 606.5,822C 529.789,818.75 471.622,784.583 432,719.5C 398.219,654.829 398.219,590.162 432,525.5C 473.19,457.741 533.69,423.908 613.5,424C 691.683,429.911 748.85,467.411 785,536.5C 797.807,564.065 804.474,593.065 805,623.5C 900.035,718.701 995.201,813.701 1090.5,908.5C 1090.56,909.043 1090.89,909.376 1091.5,909.5C 1092.83,774.001 1092.83,638.667 1091.5,503.5C 1041.3,449.379 1024.13,386.046 1040,313.5C 1061.33,240.834 1108.17,193.334 1180.5,171C 1263.26,152.478 1332.43,174.978 1388,238.5C 1431.4,296.54 1442.06,360.207 1420,429.5C 1409.86,457.427 1394.36,481.761 1373.5,502.5 Z"/></g>
<g><path style="opacity:1" fill="#395000" d="M 1091.5,503.5 C 1092.83,638.667 1092.83,774.001 1091.5,909.5C 1090.89,909.376 1090.56,909.043 1090.5,908.5C 1091.5,773.668 1091.83,638.668 1091.5,503.5 Z"/></g>
<g><path style="opacity:1" fill="#1a00f4" d="M 1373.5,502.5 C 1373.17,638.334 1373.5,774.001 1374.5,909.5C 1374.44,910.043 1374.11,910.376 1373.5,910.5C 1372.17,774.334 1372.17,638.334 1373.5,502.5 Z"/></g>
<g><path style="opacity:1" fill="#395000" d="M 1090.5,1590.5 C 1090.56,1589.96 1090.89,1589.62 1091.5,1589.5C 1092.83,1725 1092.83,1860.33 1091.5,1995.5C 1091.83,1860.33 1091.5,1725.33 1090.5,1590.5 Z"/></g>
<g><path style="opacity:1" fill="#1a00f4" d="M 1374.5,1589.5 C 1373.5,1725 1373.17,1860.67 1373.5,1996.5C 1372.17,1860.67 1372.17,1724.67 1373.5,1588.5C 1374.11,1588.62 1374.44,1588.96 1374.5,1589.5 Z"/></g>
</svg>
